<svg width="135" height="30" viewBox="0 0 135 30" fill="none" xmlns="http://www.w3.org/2000/svg">
<g clip-path="url(#clip0_2322_11870)">
<path d="M97.3046 16.5806H99.3476C100.884 16.5806 101.76 17.6873 101.76 19.2921C101.76 20.897 100.884 22.0037 99.3476 22.0037H97.3046V16.5806ZM99.2316 17.168H98.0184V21.4145H99.2316C100.376 21.4145 101.037 20.6278 101.037 19.2921C101.037 17.9565 100.376 17.1698 99.2316 17.1698V17.168ZM103.096 18.2449V22.0019H102.435V18.2449H103.096ZM103.096 16.7187V17.5054H102.435V16.7187H103.096ZM105.498 18.1383C106.474 18.1383 107.034 18.6348 107.034 19.3901V22.0019H106.435V21.5439C106.182 21.918 105.728 22.1243 105.153 22.1243C104.355 22.1243 103.801 21.7799 103.801 21.0701C103.801 20.6645 103.954 20.3743 104.262 20.1925C104.561 20.0089 104.998 19.8638 105.559 19.7642L106.405 19.6121V19.4215C106.405 18.9565 106.052 18.6803 105.522 18.6803C105.053 18.6803 104.738 18.8551 104.278 19.3149L103.856 18.9407C104.323 18.3901 104.845 18.1383 105.499 18.1383H105.498ZM105.222 21.5824C105.897 21.5824 106.405 21.2012 106.405 20.5963V20.0998L105.714 20.238C104.854 20.4128 104.485 20.5352 104.446 21.0474C104.446 21.3918 104.731 21.5824 105.222 21.5824ZM110.598 18.2449H111.214V21.918C111.214 22.8953 110.545 23.4757 109.501 23.4757C108.886 23.4757 108.318 23.2921 107.789 22.918L108.119 22.4373C108.648 22.7659 109.011 22.918 109.494 22.918C110.132 22.918 110.561 22.5894 110.561 21.8638V21.3446C110.299 21.7502 109.9 21.9547 109.355 21.9547C108.388 21.9547 107.695 21.1523 107.695 20.0456C107.695 18.939 108.386 18.1366 109.355 18.1366C109.923 18.1366 110.338 18.3586 110.6 18.7939V18.2432L110.598 18.2449ZM109.462 21.3988C110.131 21.3988 110.575 20.8411 110.575 20.0474C110.575 19.2537 110.131 18.696 109.462 18.696C108.794 18.696 108.372 19.2467 108.372 20.0474C108.372 20.8481 108.787 21.3988 109.462 21.3988ZM113.905 18.1383C114.788 18.1383 115.257 18.689 115.257 19.4285V22.0019H114.596V19.6348C114.596 19.0247 114.289 18.696 113.728 18.696C113.167 18.696 112.752 19.1156 112.752 19.6733V22.0019H112.091V18.2449H112.713V18.7345C112.959 18.3446 113.381 18.1383 113.904 18.1383H113.905ZM117.759 18.1383C118.858 18.1383 119.633 18.9547 119.633 20.1243C119.633 21.2939 118.858 22.1103 117.759 22.1103C116.66 22.1103 115.894 21.2939 115.894 20.1243C115.894 18.9547 116.669 18.1383 117.759 18.1383ZM117.759 18.689C117.03 18.689 116.569 19.2694 116.569 20.1243C116.569 20.9792 117.03 21.5596 117.759 21.5596C118.489 21.5596 118.957 20.9792 118.957 20.1243C118.957 19.2694 118.489 18.689 117.759 18.689ZM118.735 16.5352L118.028 17.6348H117.445L117.998 16.5352H118.735ZM121.566 18.1383C122.188 18.1383 122.617 18.2904 123.116 18.689L122.756 19.1313C122.287 18.7729 121.996 18.6733 121.566 18.6733C121.066 18.6733 120.736 18.9023 120.736 19.231C120.782 19.5666 120.943 19.6051 121.75 19.7887C122.772 20.0247 123.178 20.3009 123.178 20.9425C123.178 21.6453 122.578 22.1103 121.666 22.1103C120.991 22.1103 120.514 21.9268 119.922 21.4075L120.314 20.9792C120.859 21.4303 121.205 21.5666 121.673 21.5666C122.172 21.5666 122.533 21.3376 122.533 20.9705C122.533 20.6033 122.211 20.474 121.473 20.3131C120.419 20.0771 120.12 19.8935 120.098 19.2519C120.098 18.5946 120.697 18.1366 121.564 18.1366L121.566 18.1383ZM125.748 21.4233L125.849 21.9425C125.611 22.0264 125.349 22.0719 125.073 22.0719C124.375 22.0719 124.097 21.7519 124.097 21.1331V18.7432H123.391V18.2467H124.097V16.9862H124.759V18.2467H125.78V18.7432H124.759V21.0579C124.759 21.3935 124.889 21.5159 125.203 21.5159C125.342 21.5159 125.527 21.4862 125.748 21.425V21.4233ZM127.011 18.2449V22.0019H126.35V18.2449H127.011ZM127.011 16.7187V17.5054H126.35V16.7187H127.011ZM131.004 18.8568L130.573 19.2537C130.174 18.8254 129.866 18.689 129.474 18.689C129.105 18.689 128.822 18.8271 128.628 19.1086C128.428 19.3918 128.329 19.7275 128.329 20.1243C128.329 20.5212 128.43 20.8568 128.628 21.1331C128.829 21.4163 129.112 21.5526 129.488 21.5526C129.894 21.5526 130.179 21.4075 130.617 20.9268L131.048 21.2939C130.555 21.897 130.126 22.1103 129.488 22.1103C128.382 22.1103 127.653 21.3236 127.653 20.1243C127.653 18.925 128.398 18.1383 129.488 18.1383C130.11 18.1383 130.548 18.3376 131.002 18.8568H131.004ZM133.126 18.1383C134.225 18.1383 135 18.9547 135 20.1243C135 21.2939 134.225 22.1103 133.126 22.1103C132.027 22.1103 131.26 21.2939 131.26 20.1243C131.26 18.9547 132.036 18.1383 133.126 18.1383ZM133.126 18.689C132.396 18.689 131.935 19.2694 131.935 20.1243C131.935 20.9792 132.396 21.5596 133.126 21.5596C133.855 21.5596 134.323 20.9792 134.323 20.1243C134.323 19.2694 133.855 18.689 133.126 18.689ZM100.091 28.1401L100.483 28.5369C99.9384 29.1103 99.4777 29.3166 98.8325 29.3166C97.6879 29.3166 96.967 28.5299 96.967 27.3533C96.967 26.1768 97.6809 25.3446 98.7727 25.3446C99.8645 25.3446 100.478 26.0317 100.478 27.154C100.478 27.2537 100.471 27.3533 100.462 27.4442H97.6211C97.6598 28.2082 98.0747 28.7659 98.843 28.7659C99.0804 28.7659 99.2808 28.7205 99.4566 28.6278C99.6342 28.5369 99.8399 28.3761 100.095 28.1383L100.091 28.1401ZM98.7621 25.8726C98.1485 25.8726 97.7406 26.2624 97.6404 26.9565H99.8223C99.7907 26.2921 99.4074 25.8726 98.7621 25.8726ZM104.583 23.6733C105.405 23.6733 105.988 23.9093 106.642 24.467L106.227 24.9565C105.644 24.4442 105.199 24.2764 104.583 24.2764C103.838 24.2764 103.332 24.6435 103.332 25.1628C103.332 25.5299 103.555 25.7362 103.954 25.8656C104.146 25.9338 104.438 26.0107 104.83 26.0946C106.22 26.4233 106.695 26.7747 106.72 27.6523C106.72 28.6523 105.883 29.3324 104.707 29.3324C104.269 29.3324 103.87 29.2642 103.523 29.1103C103.179 28.9652 102.802 28.7292 102.41 28.3935L102.832 27.897C103.216 28.217 103.546 28.432 103.831 28.5456C104.107 28.6593 104.399 28.7205 104.714 28.7205C105.475 28.7205 106.011 28.3236 106.011 27.689C106.011 27.2694 105.758 27.0474 105.366 26.9093C105.174 26.8411 104.882 26.7642 104.49 26.6803C103.093 26.3673 102.639 26.0229 102.639 25.175C102.639 24.2817 103.507 23.6715 104.582 23.6715L104.583 23.6733ZM108.974 25.3446C109.949 25.3446 110.51 25.8411 110.51 26.5963V29.2082H109.911V28.7502C109.658 29.1243 109.204 29.3306 108.629 29.3306C107.831 29.3306 107.277 28.988 107.277 28.2764C107.277 27.8726 107.43 27.5824 107.738 27.3988C108.037 27.2152 108.474 27.0701 109.035 26.9705L109.879 26.8184V26.6278C109.879 26.161 109.526 25.8866 108.996 25.8866C108.527 25.8866 108.212 26.0614 107.752 26.5194L107.33 26.1453C107.799 25.5963 108.32 25.3428 108.974 25.3428V25.3446ZM108.698 28.7904C109.373 28.7904 109.881 28.4093 109.881 27.8061V27.3096L109.19 27.4477C108.33 27.6243 107.961 27.7449 107.922 28.2572C107.922 28.6016 108.207 28.7921 108.698 28.7921V28.7904ZM113.793 25.453H114.454V29.21H113.84V28.7432C113.617 29.1103 113.211 29.3166 112.696 29.3166C111.781 29.3166 111.351 28.8201 111.351 28.0876V25.453H112.012V27.9268C112.012 28.4687 112.288 28.7519 112.803 28.7519C113.387 28.7519 113.793 28.3935 113.793 27.7432V25.4512V25.453ZM113.83 23.7414L113.123 24.8411H112.539L113.091 23.7414H113.828H113.83ZM118.032 23.7869H118.693V29.21H118.07V28.6226C117.794 29.0806 117.364 29.3096 116.78 29.3096C115.813 29.3096 115.113 28.5072 115.113 27.3324C115.113 26.1575 115.827 25.3551 116.796 25.3551C117.341 25.3551 117.756 25.5544 118.032 25.9582V23.7887V23.7869ZM116.88 28.7519C117.58 28.7519 118.055 28.21 118.055 27.3306C118.055 26.4512 117.578 25.918 116.88 25.918C116.228 25.918 115.79 26.4827 115.79 27.3306C115.79 28.1785 116.212 28.7519 116.88 28.7519ZM122.466 28.1401L122.858 28.5369C122.313 29.1103 121.852 29.3166 121.207 29.3166C120.062 29.3166 119.342 28.5299 119.342 27.3533C119.342 26.1768 120.055 25.3446 121.147 25.3446C122.239 25.3446 122.853 26.0317 122.853 27.154C122.853 27.2537 122.846 27.3533 122.837 27.4442H119.996C120.034 28.2082 120.449 28.7659 121.218 28.7659C121.455 28.7659 121.655 28.7205 121.831 28.6278C122.009 28.5369 122.214 28.3761 122.469 28.1383L122.466 28.1401ZM121.137 25.8726C120.523 25.8726 120.115 26.2624 120.015 26.9565H122.197C122.167 26.2921 121.782 25.8726 121.137 25.8726Z" fill="#E51518"/>
<path d="M8.89279 8.43007C12.2579 8.43007 14.5858 9.25699 17.2863 11.4056L15.333 13.8024C12.7977 11.8601 11.2189 11.3234 8.89104 11.3234C6.19047 11.3234 4.40241 12.5629 4.40241 14.3392C4.65207 16.1573 5.52412 16.3636 9.88792 17.3549C15.4156 18.6364 17.6169 20.1241 17.6169 23.5944C17.6169 27.3969 14.3748 29.9161 9.4308 29.9161C5.77379 29.9161 3.19805 28.9248 -0.00183105 26.1136L2.11677 23.799C5.067 26.236 6.9377 26.9808 9.47299 26.9808C12.1736 26.9808 14.1269 25.7413 14.1269 23.757C14.1269 21.7727 12.381 21.0717 8.39171 20.2028C2.69873 18.9213 1.07769 17.9301 0.95286 14.4598C0.95286 10.9056 4.19494 8.42657 8.88928 8.42657L8.89279 8.43007ZM28.7637 8.43007C34.0418 8.43007 37.0746 11.1154 37.0746 15.2063V29.3374H33.8326V26.8584C32.4612 28.8829 30.0103 29.9982 26.893 29.9982C22.5714 29.9982 19.579 28.1381 19.579 24.2955C19.579 22.1049 20.4106 20.535 22.0721 19.5437C23.6931 18.5524 26.0614 17.7675 29.0943 17.229L33.6655 16.4021V15.3689C33.6655 12.8479 31.7544 11.3601 28.8868 11.3601C26.3515 11.3601 24.6478 12.3112 22.1547 14.7902L19.8691 12.7657C22.4044 9.79021 25.2298 8.42657 28.762 8.42657L28.7637 8.43007ZM27.2675 27.0647C30.9245 27.0647 33.6673 24.9982 33.6673 21.7343V19.0489L29.9276 19.792C25.2737 20.743 23.2782 21.4038 23.0707 24.1713C23.0707 26.0315 24.6092 27.0647 27.2675 27.0647ZM50.4034 8.47028C55.6814 8.47028 59.4211 12.8094 59.4211 19.1731C59.4211 25.5367 55.5971 29.8759 50.4034 29.8759C47.2035 29.8759 44.8757 28.6783 43.4217 26.2395V29.3392H40.0548V0H43.6291V11.8584C45.1675 9.58566 47.411 8.47028 50.4034 8.47028ZM49.8619 26.8182C53.3941 26.8182 55.7623 23.7605 55.7623 19.1731C55.7623 14.5857 53.3941 11.4878 49.8619 11.4878C46.08 11.4878 43.5043 14.4213 43.5043 19.1731C43.5043 23.9248 46.08 26.8182 49.8619 26.8182ZM65.7277 9.00874V29.3392H62.1533V9.00874H65.7277ZM63.9396 5.16434C62.6104 5.16434 61.5713 4.13112 61.5713 2.84965C61.5713 1.56818 62.6104 0.534965 63.9396 0.534965C65.2688 0.534965 66.2674 1.56818 66.2674 2.84965C66.2674 4.13112 65.2706 5.16434 63.9396 5.16434ZM79.1901 8.43007C83.9688 8.43007 86.5041 11.4056 86.5041 15.4126V29.3374H82.9297V16.528C82.9297 13.222 81.2682 11.4458 78.2336 11.4458C75.199 11.4458 72.9556 13.7185 72.9556 16.7343V29.3374H69.3812V9.00874H72.7481V11.6538C74.0773 9.5472 76.3629 8.43007 79.1901 8.43007Z" fill="#E51518"/>
</g>
<defs>
<clipPath id="clip0_2322_11870">
<rect width="135" height="30" fill="white"/>
</clipPath>
</defs>
</svg>
